# xmcd
#
# Track frame offsets:
#	150
#	9551
#	22794
#	34738
#	45984
#	55420
#	66905
#	80654
#	92238
#	103286
#	113000
#	124403
#	135389
#	148001
#	160245
#	172633
#	184512
#	197366
#	208521
#	218551
#
# Disc length: 3045 seconds
#
# Revision: 1
# Processed by: cddbd v1.5.2PL0 Copyright (c) Steve Scherf et al.
# Submitted via: audiograbber 1.83.01
#
DISCID=090be314
DTITLE=Various Artist - 100 Driving hits - CD 4 Country roads
DYEAR=2006
DGENRE=Country
TTITLE0=Bob Wills - Cadillac in model ''A'' (1954)
TTITLE1=Hank Williams and the Drifting Cowboys - Hey good lookin' (1951)
TTITLE2=Jim Reeves - Mexican Joe (1953)
TTITLE3=Johnny Cash and the Tennessee Two - Cry cry cry (1955)
TTITLE4=Elvis (Presley), Scotty and Bill - Blue moon of Kentucky (1954)
TTITLE5=Arkie Shibley - Hot Rod Race (1950)
TTITLE6=Carl Perkins - Turn around (1955)
TTITLE7=Slim Whitman - Cattle call (1954)
TTITLE8=Bill Hayes - The ballad of Davy Crockett (1955)
TTITLE9=Marty Robbins - Call me up and I'll come calling on you (1954)
TTITLE10=Faron Young - Forgive me Dear (1955)
TTITLE11=George Jones - No money in this deal (1954)
TTITLE12=Dick Reinhart - Hot Rod Baby (1949)
TTITLE13=Frankie Lane with Jimmy Caroll Orch - High Noon - Do not forsake me (1
TTITLE13=952)
TTITLE14=Hank Williams and the Drifting Cowboys - Your cheatin' heart (1952)
TTITLE15=Bonnie Lou - Tenessee wig walk (1953)
TTITLE16=Hank Snow - I'm movin' on (1950)
TTITLE17=Elvis (Presley), Scotty and Bill - Mystery train (1956)
TTITLE18=T Texas Tyler - Hot Rod Rag (1954)
TTITLE19=Eddy Arnold - I wanna play house with you (1951)
EXTD=5 cd set\n(c) 2006 Bellevue Entertainments
EXTT0=
EXTT1=
EXTT2=
EXTT3=
EXTT4=
EXTT5=
EXTT6=
EXTT7=
EXTT8=
EXTT9=
EXTT10=
EXTT11=
EXTT12=
EXTT13=
EXTT14=
EXTT15=
EXTT16=
EXTT17=
EXTT18=
EXTT19=
PLAYORDER=
